<svg xmlns="http://www.w3.org/2000/svg" width="773" height="140" fill="none" viewBox="0 0 773 140">
  <path fill="#fff" d="M740.242 0h26c3.6 0 3.8 3.4 2 5.2l-61.4 62.2 64.2 67.4c1.8 1.8 1.6 5.2-2 5.2h-27.4c-3.2 0-4.8-.8-6.4-2.8l-49.4-51.8-49.6 51.8c-1.8 2-3.2 2.8-6.6 2.8h-26c-3.4 0-3.6-3.4-1.8-5.2l65.8-68.4-59.4-61.2c-1.6-1.8-1.6-5.2 2-5.2h27.4c3.2 0 4.8 1 6.4 2.8l43.6 46.4 46.2-46.4c1.6-1.8 3.2-2.8 6.4-2.8ZM494.92 0h88c3 0 4.6 1.4 4.6 4.4v19c0 3-1.6 4.4-4.6 4.4h-87.4c-20.8 0-26.6 6.2-26.6 27.2v2h113c3 0 4.4 1.4 4.4 4.4v15.8c0 3-1.4 4.4-4.4 4.4h-113V85c0 21 5.8 27.2 26.6 27.2h87.4c3 0 4.6 1.4 4.6 4.4v19c0 3-1.6 4.4-4.6 4.4h-88c-40.4 0-56-14.4-56-52.8V52.8c0-38.4 15.6-52.8 56-52.8ZM268.981 0h107.4c30.6 0 43 14.2 43 41.2v11.4c0 22.8-8.8 36.2-29.8 40l34.2 42.4c1.2 1.4 1 5-2.6 5h-25.8c-3.4 0-4.4-.8-5.6-2.6l-31.6-41.6h-64.6v39.8c0 3-1.4 4.4-4.4 4.4h-21.6c-3 0-4.6-1.4-4.6-4.4V6c0-4 2-6 6-6Zm24.6 29.8v41.6h76.6c13.6 0 18.6-5.8 18.6-17.8v-8.4c0-12-5-17.8-18.6-17.8h-74c-1.8 0-2.6.8-2.6 2.4ZM210.355 0h21.6c3 0 4.4 1.4 4.4 4.4v131.2c0 3-1.4 4.4-4.4 4.4h-21.6c-3 0-4.6-1.4-4.6-4.4V4.4c0-3 1.6-4.4 4.6-4.4ZM3.833 0h25.2c2.6 0 3.6.8 4.6 2.6l58.6 107.6c.6 1.2 1.2 1.4 2.4 1.4h1c1 0 1.6-.2 2.2-1.4l57.8-107.6c1-2 2.2-2.6 4.6-2.6h26.2c3.2 0 3.8 2 2.4 4.6l-65.6 120.2c-6.6 12.2-12.6 15.2-21 15.2h-11.6c-10.4 0-16.2-3-23-15.2L1.233 4.6C-.167 2 .433 0 3.833 0Z"/>
</svg>
